<svg width="24" height="24" viewBox="0 0 24 24" fill="none" xmlns="http://www.w3.org/2000/svg">
    <rect width="24" height="24" rx="2" fill="#FCFCFC"/>
    <path d="M9.5719 9.82802C9.57028 9.82368 9.56862 9.81933 9.56684 9.81502C9.48 9.60068 9.27647 9.46228 9.04822 9.46228C9.04803 9.46228 9.04781 9.46228 9.04759 9.46228C8.81909 9.46253 8.61556 9.60141 8.52909 9.8161C8.52765 9.81965 8.52628 9.82323 8.52494 9.82682L6.9995 13.8925C6.90734 14.1381 7.02878 14.413 7.27072 14.5065C7.51266 14.6001 7.78347 14.4768 7.87559 14.2312L8.14053 13.5251H9.9444L10.2064 14.2298C10.2773 14.4204 10.4556 14.5378 10.6451 14.5378C10.7001 14.5378 10.756 14.5279 10.8105 14.507C11.0527 14.4142 11.175 14.1397 11.0835 13.8938L9.5719 9.82802ZM8.49759 12.5735L9.04659 11.1103L9.59059 12.5735H8.49759Z" fill="#585757"/>
    <path d="M16 9.46231C15.7411 9.46231 15.5313 9.67535 15.5313 9.93813V14.0619C15.5313 14.3246 15.7411 14.5377 16 14.5377C16.2589 14.5377 16.4688 14.3246 16.4688 14.0619V9.93813C16.4688 9.67535 16.2589 9.46231 16 9.46231Z" fill="#585757"/>
    <path d="M13.2937 9.46231H12.1625C12.0379 9.46231 11.9185 9.51265 11.8305 9.6022C11.7429 9.6914 11.6937 9.81223 11.6937 9.93813V14.0619C11.6937 14.3246 11.9036 14.5377 12.1625 14.5377C12.4214 14.5377 12.6312 14.3246 12.6312 14.0619V12.7439C12.8692 12.7426 13.1414 12.7414 13.2937 12.7414C14.1967 12.7414 14.9313 12.0059 14.9313 11.1019C14.9313 10.1978 14.1967 9.46231 13.2937 9.46231ZM13.2937 11.7898C13.142 11.7898 12.8734 11.791 12.6365 11.7922C12.6353 11.5437 12.6333 10.6733 12.6326 10.4139H13.2937C13.6732 10.4139 13.9938 10.729 13.9938 11.1018C13.9938 11.4747 13.6732 11.7898 13.2937 11.7898Z" fill="#585757"/>
    <path d="M19.7656 13.3952L18.7199 12.7823C18.7531 12.5074 18.7693 12.2492 18.7693 12C18.7693 11.7509 18.7531 11.4927 18.7199 11.2177L19.7656 10.6049C19.8733 10.5418 19.9518 10.4379 19.984 10.316C20.0162 10.1941 19.9994 10.0642 19.9372 9.95491L17.7135 6.04516C17.584 5.81759 17.2974 5.73965 17.0731 5.87097L16.0317 6.48129C15.6209 6.1728 15.1724 5.91164 14.6925 5.70136V4.47582C14.6925 4.21304 14.4826 4 14.2237 4H9.77628C9.5174 4 9.30753 4.21304 9.30753 4.47582V5.70136C8.82769 5.91161 8.37922 6.17283 7.96828 6.48129L6.92694 5.87101C6.81928 5.80791 6.69138 5.79082 6.57125 5.82346C6.45116 5.85613 6.34878 5.93584 6.28663 6.04516L4.06288 9.95484C3.93344 10.1824 4.01025 10.4734 4.23444 10.6048L5.28013 11.2177C5.24694 11.4926 5.23069 11.7508 5.23069 12C5.23069 12.2492 5.24694 12.5074 5.28013 12.7823L4.23444 13.3952C4.01025 13.5266 3.93344 13.8176 4.06288 14.0452L6.28659 17.9548C6.34875 18.0641 6.45113 18.1439 6.57122 18.1765C6.69131 18.2092 6.81922 18.1921 6.92691 18.129L7.96828 17.5187C8.37919 17.8272 8.82769 18.0884 9.30753 18.2986V19.5242C9.30753 19.787 9.5174 20 9.77628 20H14.2237C14.4826 20 14.6925 19.787 14.6925 19.5242V18.2986C15.1724 18.0884 15.6209 17.8272 16.0317 17.5187L17.0731 18.129C17.2974 18.2604 17.584 18.1824 17.7135 17.9548L19.9372 14.0452C19.9993 13.9359 20.0162 13.806 19.984 13.6841C19.9519 13.5622 19.8733 13.4583 19.7656 13.3952ZM17.1359 17.067L16.2272 16.5344C16.0582 16.4354 15.8464 16.453 15.6955 16.5786C15.2137 16.9799 14.6628 17.3009 14.0581 17.5329C13.8757 17.6028 13.755 17.7801 13.755 17.978V19.0484H10.245V17.978C10.245 17.7801 10.1243 17.6028 9.94197 17.5329C9.33728 17.3009 8.78637 16.9799 8.3045 16.5786C8.15359 16.453 7.94184 16.4353 7.77281 16.5344L6.86413 17.067L5.10916 13.9814L6.02341 13.4456C6.19213 13.3467 6.283 13.1522 6.25169 12.957C6.19553 12.607 6.16822 12.2939 6.16822 12C6.16822 11.7061 6.19553 11.393 6.25169 11.043C6.283 10.8478 6.19213 10.6533 6.02341 10.5544L5.10916 10.0186L6.86413 6.93303L7.77281 7.46556C7.94181 7.5646 8.15359 7.54702 8.3045 7.42138C8.78637 7.0201 9.33731 6.69905 9.94197 6.46711C10.1243 6.39713 10.245 6.21991 10.245 6.022V4.95163H13.755V6.02203C13.755 6.21994 13.8757 6.39716 14.0581 6.46714C14.6628 6.69909 15.2137 7.02017 15.6955 7.42138C15.8464 7.54702 16.0582 7.56463 16.2272 7.46559L17.1359 6.93303L18.8909 10.0186L17.9766 10.5544C17.8079 10.6533 17.717 10.8478 17.7483 11.0429C17.8045 11.393 17.8318 11.7061 17.8318 12C17.8318 12.2939 17.8045 12.6069 17.7483 12.957C17.717 13.1522 17.8079 13.3467 17.9766 13.4455L18.8909 13.9814L17.1359 17.067Z" fill="#585757"/>
</svg>
