<svg width="119" height="26" viewBox="0 0 119 26" fill="none" xmlns="http://www.w3.org/2000/svg">
    <rect width="119" height="26" rx="4" fill="url(#paint0_linear_21_105)" fill-opacity="0.3"/>
    <path d="M12.2619 18L15.1539 9.36H16.6419L19.5339 18H18.4239L15.7179 9.984H16.0539L13.3719 18H12.2619ZM13.6539 15.978V14.976H18.1419V15.978H13.6539ZM20.638 18V11.52H23.398C23.562 11.52 23.738 11.53 23.926 11.55C24.118 11.566 24.292 11.596 24.448 11.64C24.796 11.732 25.082 11.922 25.306 12.21C25.534 12.494 25.648 12.854 25.648 13.29C25.648 13.534 25.61 13.746 25.534 13.926C25.462 14.106 25.358 14.262 25.222 14.394C25.162 14.454 25.096 14.508 25.024 14.556C24.952 14.604 24.88 14.642 24.808 14.67C24.948 14.694 25.09 14.748 25.234 14.832C25.462 14.956 25.64 15.13 25.768 15.354C25.9 15.578 25.966 15.864 25.966 16.212C25.966 16.652 25.86 17.016 25.648 17.304C25.436 17.588 25.144 17.784 24.772 17.892C24.616 17.936 24.444 17.966 24.256 17.982C24.068 17.994 23.886 18 23.71 18H20.638ZM21.718 17.13H23.65C23.734 17.13 23.834 17.122 23.95 17.106C24.07 17.09 24.176 17.07 24.268 17.046C24.476 16.986 24.626 16.874 24.718 16.71C24.814 16.546 24.862 16.368 24.862 16.176C24.862 15.92 24.79 15.712 24.646 15.552C24.506 15.392 24.32 15.292 24.088 15.252C24.004 15.228 23.912 15.214 23.812 15.21C23.716 15.206 23.63 15.204 23.554 15.204H21.718V17.13ZM21.718 14.322H23.326C23.438 14.322 23.556 14.316 23.68 14.304C23.804 14.288 23.912 14.262 24.004 14.226C24.188 14.158 24.322 14.046 24.406 13.89C24.494 13.73 24.538 13.556 24.538 13.368C24.538 13.16 24.49 12.978 24.394 12.822C24.302 12.662 24.16 12.552 23.968 12.492C23.84 12.444 23.696 12.418 23.536 12.414C23.38 12.406 23.28 12.402 23.236 12.402H21.718V14.322ZM28.9233 18V12.492H26.6673V11.52H32.2473V12.492H29.9913V18H28.9233ZM36.0619 18.18C35.4179 18.18 34.8619 18.034 34.3939 17.742C33.9299 17.45 33.5719 17.046 33.3199 16.53C33.0679 16.014 32.9419 15.422 32.9419 14.754C32.9419 14.074 33.0699 13.478 33.3259 12.966C33.5819 12.454 33.9439 12.056 34.4119 11.772C34.8799 11.484 35.4299 11.34 36.0619 11.34C36.7099 11.34 37.2679 11.486 37.7359 11.778C38.2039 12.066 38.5619 12.468 38.8099 12.984C39.0619 13.496 39.1879 14.086 39.1879 14.754C39.1879 15.43 39.0619 16.026 38.8099 16.542C38.5579 17.054 38.1979 17.456 37.7299 17.748C37.2619 18.036 36.7059 18.18 36.0619 18.18ZM36.0619 17.166C36.7339 17.166 37.2339 16.942 37.5619 16.494C37.8899 16.046 38.0539 15.466 38.0539 14.754C38.0539 14.022 37.8879 13.44 37.5559 13.008C37.2239 12.572 36.7259 12.354 36.0619 12.354C35.6099 12.354 35.2379 12.456 34.9459 12.66C34.6539 12.864 34.4359 13.146 34.2919 13.506C34.1479 13.866 34.0759 14.282 34.0759 14.754C34.0759 15.482 34.2439 16.066 34.5799 16.506C34.9159 16.946 35.4099 17.166 36.0619 17.166ZM43.5209 18.18C42.9129 18.18 42.4009 18.03 41.9849 17.73C41.5689 17.426 41.2529 17.016 41.0369 16.5C40.8249 15.98 40.7189 15.398 40.7189 14.754C40.7189 14.102 40.8249 13.518 41.0369 13.002C41.2529 12.486 41.5689 12.08 41.9849 11.784C42.4049 11.488 42.9189 11.34 43.5269 11.34C44.1269 11.34 44.6429 11.49 45.0749 11.79C45.5109 12.086 45.8449 12.492 46.0769 13.008C46.3089 13.524 46.4249 14.106 46.4249 14.754C46.4249 15.402 46.3089 15.984 46.0769 16.5C45.8449 17.016 45.5109 17.426 45.0749 17.73C44.6429 18.03 44.1249 18.18 43.5209 18.18ZM40.5389 20.88V11.52H41.4929V16.29H41.6129V20.88H40.5389ZM43.3889 17.202C43.8169 17.202 44.1709 17.094 44.4509 16.878C44.7309 16.662 44.9409 16.37 45.0809 16.002C45.2209 15.63 45.2909 15.214 45.2909 14.754C45.2909 14.298 45.2209 13.886 45.0809 13.518C44.9449 13.15 44.7329 12.858 44.4449 12.642C44.1609 12.426 43.7989 12.318 43.3589 12.318C42.9389 12.318 42.5909 12.422 42.3149 12.63C42.0389 12.834 41.8329 13.12 41.6969 13.488C41.5609 13.852 41.4929 14.274 41.4929 14.754C41.4929 15.226 41.5589 15.648 41.6909 16.02C41.8269 16.388 42.0349 16.678 42.3149 16.89C42.5949 17.098 42.9529 17.202 43.3889 17.202ZM53.0802 11.52V18H52.0482V13.224L48.6522 18H47.7702V11.52H48.8022V16.23L52.2042 11.52H53.0802ZM57.1186 18.18C56.4786 18.18 55.9126 18.042 55.4206 17.766C54.9286 17.486 54.5406 17.102 54.2566 16.614L55.1086 16.062C55.3446 16.418 55.6266 16.692 55.9546 16.884C56.2826 17.072 56.6566 17.166 57.0766 17.166C57.5166 17.166 57.8666 17.066 58.1266 16.866C58.3866 16.662 58.5166 16.388 58.5166 16.044C58.5166 15.788 58.4526 15.592 58.3246 15.456C58.1966 15.32 58.0126 15.226 57.7726 15.174C57.5326 15.122 57.2466 15.096 56.9146 15.096H56.2426V14.214H56.9086C57.3286 14.214 57.6706 14.146 57.9346 14.01C58.1986 13.874 58.3306 13.642 58.3306 13.314C58.3306 12.978 58.2066 12.734 57.9586 12.582C57.7146 12.426 57.4226 12.348 57.0826 12.348C56.7226 12.348 56.3786 12.424 56.0506 12.576C55.7226 12.724 55.4406 12.912 55.2046 13.14L54.5566 12.414C54.8926 12.07 55.2786 11.806 55.7146 11.622C56.1546 11.434 56.6326 11.34 57.1486 11.34C57.5646 11.34 57.9446 11.414 58.2886 11.562C58.6366 11.706 58.9126 11.92 59.1166 12.204C59.3246 12.484 59.4286 12.826 59.4286 13.23C59.4286 13.574 59.3486 13.88 59.1886 14.148C59.0286 14.416 58.7926 14.65 58.4806 14.85L58.4386 14.472C58.7026 14.536 58.9206 14.654 59.0926 14.826C59.2686 14.994 59.3986 15.194 59.4826 15.426C59.5666 15.658 59.6086 15.9 59.6086 16.152C59.6086 16.576 59.4966 16.94 59.2726 17.244C59.0526 17.544 58.7546 17.776 58.3786 17.94C58.0026 18.1 57.5826 18.18 57.1186 18.18ZM63.7215 18.18C63.0775 18.18 62.5215 18.034 62.0535 17.742C61.5895 17.45 61.2315 17.046 60.9795 16.53C60.7275 16.014 60.6015 15.422 60.6015 14.754C60.6015 14.074 60.7295 13.478 60.9855 12.966C61.2415 12.454 61.6035 12.056 62.0715 11.772C62.5395 11.484 63.0895 11.34 63.7215 11.34C64.3695 11.34 64.9275 11.486 65.3955 11.778C65.8635 12.066 66.2215 12.468 66.4695 12.984C66.7215 13.496 66.8475 14.086 66.8475 14.754C66.8475 15.43 66.7215 16.026 66.4695 16.542C66.2175 17.054 65.8575 17.456 65.3895 17.748C64.9215 18.036 64.3655 18.18 63.7215 18.18ZM63.7215 17.166C64.3935 17.166 64.8935 16.942 65.2215 16.494C65.5495 16.046 65.7135 15.466 65.7135 14.754C65.7135 14.022 65.5475 13.44 65.2155 13.008C64.8835 12.572 64.3855 12.354 63.7215 12.354C63.2695 12.354 62.8975 12.456 62.6055 12.66C62.3135 12.864 62.0955 13.146 61.9515 13.506C61.8075 13.866 61.7355 14.282 61.7355 14.754C61.7355 15.482 61.9035 16.066 62.2395 16.506C62.5755 16.946 63.0695 17.166 63.7215 17.166ZM68.1985 18V11.52H70.9585C71.1225 11.52 71.2985 11.53 71.4865 11.55C71.6785 11.566 71.8525 11.596 72.0085 11.64C72.3565 11.732 72.6425 11.922 72.8665 12.21C73.0945 12.494 73.2085 12.854 73.2085 13.29C73.2085 13.534 73.1705 13.746 73.0945 13.926C73.0225 14.106 72.9185 14.262 72.7825 14.394C72.7225 14.454 72.6565 14.508 72.5845 14.556C72.5125 14.604 72.4405 14.642 72.3685 14.67C72.5085 14.694 72.6505 14.748 72.7945 14.832C73.0225 14.956 73.2005 15.13 73.3285 15.354C73.4605 15.578 73.5265 15.864 73.5265 16.212C73.5265 16.652 73.4205 17.016 73.2085 17.304C72.9965 17.588 72.7045 17.784 72.3325 17.892C72.1765 17.936 72.0045 17.966 71.8165 17.982C71.6285 17.994 71.4465 18 71.2705 18H68.1985ZM69.2785 17.13H71.2105C71.2945 17.13 71.3945 17.122 71.5105 17.106C71.6305 17.09 71.7365 17.07 71.8285 17.046C72.0365 16.986 72.1865 16.874 72.2785 16.71C72.3745 16.546 72.4225 16.368 72.4225 16.176C72.4225 15.92 72.3505 15.712 72.2065 15.552C72.0665 15.392 71.8805 15.292 71.6485 15.252C71.5645 15.228 71.4725 15.214 71.3725 15.21C71.2765 15.206 71.1905 15.204 71.1145 15.204H69.2785V17.13ZM69.2785 14.322H70.8865C70.9985 14.322 71.1165 14.316 71.2405 14.304C71.3645 14.288 71.4725 14.262 71.5645 14.226C71.7485 14.158 71.8825 14.046 71.9665 13.89C72.0545 13.73 72.0985 13.556 72.0985 13.368C72.0985 13.16 72.0505 12.978 71.9545 12.822C71.8625 12.662 71.7205 12.552 71.5285 12.492C71.4005 12.444 71.2565 12.418 71.0965 12.414C70.9405 12.406 70.8405 12.402 70.7965 12.402H69.2785V14.322ZM76.6099 18.18C76.1259 18.18 75.7199 18.092 75.3919 17.916C75.0679 17.736 74.8219 17.5 74.6539 17.208C74.4899 16.916 74.4079 16.596 74.4079 16.248C74.4079 15.908 74.4719 15.614 74.5999 15.366C74.7319 15.114 74.9159 14.906 75.1519 14.742C75.3879 14.574 75.6699 14.442 75.9979 14.346C76.3059 14.262 76.6499 14.19 77.0299 14.13C77.4139 14.066 77.8019 14.008 78.1939 13.956C78.5859 13.904 78.9519 13.854 79.2919 13.806L78.9079 14.028C78.9199 13.452 78.8039 13.026 78.5599 12.75C78.3199 12.474 77.9039 12.336 77.3119 12.336C76.9199 12.336 76.5759 12.426 76.2799 12.606C75.9879 12.782 75.7819 13.07 75.6619 13.47L74.6479 13.164C74.8039 12.596 75.1059 12.15 75.5539 11.826C76.0019 11.502 76.5919 11.34 77.3239 11.34C77.9119 11.34 78.4159 11.446 78.8359 11.658C79.2599 11.866 79.5639 12.182 79.7479 12.606C79.8399 12.806 79.8979 13.024 79.9219 13.26C79.9459 13.492 79.9579 13.736 79.9579 13.992V18H79.0099V16.446L79.2319 16.59C78.9879 17.114 78.6459 17.51 78.2059 17.778C77.7699 18.046 77.2379 18.18 76.6099 18.18ZM76.7719 17.286C77.1559 17.286 77.4879 17.218 77.7679 17.082C78.0519 16.942 78.2799 16.76 78.4519 16.536C78.6239 16.308 78.7359 16.06 78.7879 15.792C78.8479 15.592 78.8799 15.37 78.8839 15.126C78.8919 14.878 78.8959 14.688 78.8959 14.556L79.2679 14.718C78.9199 14.766 78.5779 14.812 78.2419 14.856C77.9059 14.9 77.5879 14.948 77.2879 15C76.9879 15.048 76.7179 15.106 76.4779 15.174C76.3019 15.23 76.1359 15.302 75.9799 15.39C75.8279 15.478 75.7039 15.592 75.6079 15.732C75.5159 15.868 75.4699 16.038 75.4699 16.242C75.4699 16.418 75.5139 16.586 75.6019 16.746C75.6939 16.906 75.8339 17.036 76.0219 17.136C76.2139 17.236 76.4639 17.286 76.7719 17.286ZM83.2699 18V12.492H81.0139V11.52H86.5939V12.492H84.3379V18H83.2699ZM87.7657 18L87.7597 11.52H88.8337V13.866H90.2317C90.4197 13.866 90.6117 13.87 90.8077 13.878C91.0037 13.886 91.1737 13.904 91.3177 13.932C91.6537 13.996 91.9477 14.108 92.1997 14.268C92.4517 14.428 92.6477 14.646 92.7877 14.922C92.9277 15.194 92.9977 15.532 92.9977 15.936C92.9977 16.496 92.8517 16.94 92.5597 17.268C92.2717 17.592 91.8937 17.808 91.4257 17.916C91.2657 17.952 91.0817 17.976 90.8737 17.988C90.6697 17.996 90.4757 18 90.2917 18H87.7657ZM88.8337 17.118H90.3097C90.4297 17.118 90.5637 17.114 90.7117 17.106C90.8597 17.098 90.9917 17.078 91.1077 17.046C91.3117 16.986 91.4937 16.868 91.6537 16.692C91.8177 16.516 91.8997 16.264 91.8997 15.936C91.8997 15.604 91.8197 15.348 91.6597 15.168C91.5037 14.988 91.2977 14.87 91.0417 14.814C90.9257 14.786 90.8037 14.768 90.6757 14.76C90.5477 14.752 90.4257 14.748 90.3097 14.748H88.8337V17.118ZM97.0825 18.18C96.4265 18.18 95.8685 18.034 95.4085 17.742C94.9525 17.446 94.6045 17.04 94.3645 16.524C94.1245 16.008 94.0005 15.42 93.9925 14.76C94.0005 14.084 94.1265 13.49 94.3705 12.978C94.6185 12.462 94.9725 12.06 95.4325 11.772C95.8925 11.484 96.4465 11.34 97.0945 11.34C97.7785 11.34 98.3665 11.508 98.8585 11.844C99.3545 12.18 99.6865 12.64 99.8545 13.224L98.7985 13.542C98.6625 13.166 98.4405 12.874 98.1325 12.666C97.8285 12.458 97.4785 12.354 97.0825 12.354C96.6385 12.354 96.2725 12.458 95.9845 12.666C95.6965 12.87 95.4825 13.154 95.3425 13.518C95.2025 13.878 95.1305 14.292 95.1265 14.76C95.1345 15.48 95.3005 16.062 95.6245 16.506C95.9525 16.946 96.4385 17.166 97.0825 17.166C97.5065 17.166 97.8585 17.07 98.1385 16.878C98.4185 16.682 98.6305 16.4 98.7745 16.032L99.8545 16.314C99.6305 16.918 99.2805 17.38 98.8045 17.7C98.3285 18.02 97.7545 18.18 97.0825 18.18ZM105.058 18V15.654H103.66C103.496 15.654 103.314 15.648 103.114 15.636C102.918 15.62 102.734 15.598 102.562 15.57C102.094 15.482 101.698 15.276 101.374 14.952C101.054 14.628 100.894 14.18 100.894 13.608C100.894 13.052 101.044 12.606 101.344 12.27C101.648 11.93 102.022 11.71 102.466 11.61C102.666 11.562 102.868 11.536 103.072 11.532C103.28 11.524 103.456 11.52 103.6 11.52H106.126L106.132 18H105.058ZM100.696 18L102.418 15.36H103.57L101.848 18H100.696ZM103.582 14.772H105.058V12.402H103.582C103.49 12.402 103.368 12.406 103.216 12.414C103.068 12.422 102.926 12.446 102.79 12.486C102.662 12.522 102.536 12.588 102.412 12.684C102.292 12.78 102.192 12.904 102.112 13.056C102.032 13.208 101.992 13.388 101.992 13.596C101.992 13.896 102.076 14.14 102.244 14.328C102.412 14.512 102.616 14.636 102.856 14.7C102.988 14.732 103.118 14.752 103.246 14.76C103.378 14.768 103.49 14.772 103.582 14.772Z" fill="#585757"/>
    <defs>
        <linearGradient id="paint0_linear_21_105" x1="0" y1="0" x2="119.564" y2="34.932" gradientUnits="userSpaceOnUse">
            <stop stop-color="#F7CFE4" stop-opacity="0.8"/>
            <stop offset="1" stop-color="#E9E2E6"/>
        </linearGradient>
    </defs>
</svg>
