<svg width="72" height="40" viewBox="0 0 72 40" fill="none" xmlns="http://www.w3.org/2000/svg">
    <rect width="72" height="40" rx="4" fill="#FCFCFC"/>
    <path d="M9.4 26.0001V11.6001H15.22C15.36 11.6001 15.5333 11.6067 15.74 11.6201C15.9467 11.6267 16.1433 11.6467 16.33 11.6801C17.13 11.8067 17.7967 12.0801 18.33 12.5001C18.87 12.9201 19.2733 13.4501 19.54 14.0901C19.8067 14.7301 19.94 15.4367 19.94 16.2101C19.94 17.3567 19.6467 18.3467 19.06 19.1801C18.4733 20.0067 17.5933 20.5234 16.42 20.7301L15.57 20.8301H11.49V26.0001H9.4ZM17.82 26.0001L14.98 20.1401L17.09 19.6001L20.21 26.0001H17.82ZM11.49 18.8501H15.14C15.2733 18.8501 15.42 18.8434 15.58 18.8301C15.7467 18.8167 15.9033 18.7934 16.05 18.7601C16.4767 18.6601 16.82 18.4767 17.08 18.2101C17.34 17.9367 17.5267 17.6234 17.64 17.2701C17.7533 16.9167 17.81 16.5634 17.81 16.2101C17.81 15.8567 17.7533 15.5067 17.64 15.1601C17.5267 14.8067 17.34 14.4967 17.08 14.2301C16.82 13.9567 16.4767 13.7701 16.05 13.6701C15.9033 13.6301 15.7467 13.6034 15.58 13.5901C15.42 13.5767 15.2733 13.5701 15.14 13.5701H11.49V18.8501ZM26.5378 26.2901C25.7911 26.2901 25.1645 26.1701 24.6578 25.9301C24.1511 25.6901 23.7378 25.3767 23.4178 24.9901C23.1045 24.5967 22.8645 24.1701 22.6978 23.7101C22.5311 23.2501 22.4178 22.8001 22.3578 22.3601C22.2978 21.9201 22.2678 21.5334 22.2678 21.2001V15.2001H24.3878V20.5101C24.3878 20.9301 24.4211 21.3634 24.4878 21.8101C24.5611 22.2501 24.6945 22.6601 24.8878 23.0401C25.0878 23.4201 25.3645 23.7267 25.7178 23.9601C26.0778 24.1934 26.5445 24.3101 27.1178 24.3101C27.4911 24.3101 27.8445 24.2501 28.1778 24.1301C28.5111 24.0034 28.8011 23.8034 29.0478 23.5301C29.3011 23.2567 29.4978 22.8967 29.6378 22.4501C29.7845 22.0034 29.8578 21.4601 29.8578 20.8201L31.1578 21.3101C31.1578 22.2901 30.9745 23.1567 30.6078 23.9101C30.2411 24.6567 29.7145 25.2401 29.0278 25.6601C28.3411 26.0801 27.5111 26.2901 26.5378 26.2901ZM30.1078 26.0001V22.8801H29.8578V15.2001H31.9678V26.0001H30.1078Z" fill="#585757"/>
    <mask id="path-4-inside-1_21_35" fill="white">
        <path d="M58.853 17.1266C58.6569 16.9579 58.3388 16.9579 58.1427 17.1266L53.0003 21.9562L47.8573 17.1266C47.6612 16.9579 47.3431 16.9579 47.147 17.1266C46.951 17.2952 46.951 17.5688 47.147 17.7374L52.6196 22.877C52.7242 22.9669 52.8632 23.0054 52.9998 22.9995C53.1368 23.0054 53.2754 22.9669 53.3799 22.877L58.853 17.737C59.049 17.5684 59.049 17.2952 58.853 17.1266Z"/>
    </mask>
    <path d="M58.853 17.1266C58.6569 16.9579 58.3388 16.9579 58.1427 17.1266L53.0003 21.9562L47.8573 17.1266C47.6612 16.9579 47.3431 16.9579 47.147 17.1266C46.951 17.2952 46.951 17.5688 47.147 17.7374L52.6196 22.877C52.7242 22.9669 52.8632 23.0054 52.9998 22.9995C53.1368 23.0054 53.2754 22.9669 53.3799 22.877L58.853 17.737C59.049 17.5684 59.049 17.2952 58.853 17.1266Z" fill="#585757"/>
    <path d="M58.853 17.1266L59.5051 16.3685L58.853 17.1266ZM58.1427 17.1266L57.4906 16.3685L57.474 16.3827L57.4581 16.3976L58.1427 17.1266ZM53.0003 21.9562L52.3157 22.6852L53.0003 23.3281L53.6849 22.6852L53.0003 21.9562ZM47.8573 17.1266L48.5418 16.3976L48.526 16.3827L48.5094 16.3685L47.8573 17.1266ZM47.147 17.1266L46.4949 16.3685H46.4949L47.147 17.1266ZM47.147 17.7374L47.8316 17.0085L47.8157 16.9936L47.7992 16.9793L47.147 17.7374ZM52.6196 22.877L51.9351 23.606L51.951 23.6209L51.9676 23.6352L52.6196 22.877ZM52.9998 22.9995L53.0433 22.0004L52.9997 21.9985L52.9561 22.0004L52.9998 22.9995ZM53.3799 22.877L54.032 23.6352L54.0485 23.6209L54.0645 23.606L53.3799 22.877ZM58.853 17.737L58.2008 16.9789L58.1843 16.9931L58.1684 17.008L58.853 17.737ZM59.5051 16.3685C58.9341 15.8773 58.0616 15.8773 57.4906 16.3685L58.7949 17.8846C58.6909 17.9741 58.5799 18.0001 58.4978 18.0001C58.4158 18.0001 58.3048 17.9741 58.2008 17.8846L59.5051 16.3685ZM57.4581 16.3976L52.3157 21.2273L53.6849 22.6852L58.8273 17.8555L57.4581 16.3976ZM53.6848 21.2273L48.5418 16.3976L47.1727 17.8555L52.3157 22.6852L53.6848 21.2273ZM48.5094 16.3685C47.9384 15.8773 47.0659 15.8773 46.4949 16.3685L47.7992 17.8846C47.6952 17.9742 47.5842 18.0001 47.5022 18.0001C47.4201 18.0001 47.3092 17.9742 47.2051 17.8846L48.5094 16.3685ZM46.4949 16.3685C45.8351 16.9361 45.835 17.9279 46.4949 18.4955L47.7992 16.9793C47.9105 17.0751 48 17.2364 48 17.432C48 17.6276 47.9105 17.7889 47.7992 17.8846L46.4949 16.3685ZM46.4625 18.4664L51.9351 23.606L53.3042 22.1481L47.8316 17.0085L46.4625 18.4664ZM51.9676 23.6352C52.299 23.9202 52.7015 24.0135 53.0435 23.9985L52.9561 22.0004C53.0249 21.9974 53.1494 22.0136 53.2717 22.1189L51.9676 23.6352ZM52.9562 23.9985C53.2989 24.0135 53.7008 23.92 54.032 23.6352L52.7278 22.1189C52.8499 22.0138 52.9747 21.9974 53.0433 22.0004L52.9562 23.9985ZM54.0645 23.606L59.5376 18.4659L58.1684 17.008L52.6953 22.1481L54.0645 23.606ZM59.5051 18.4951C60.165 17.9274 60.1649 16.9361 59.5051 16.3685L58.2008 17.8846C58.0899 17.7892 58 17.6279 58 17.4318C58 17.2357 58.0898 17.0744 58.2008 16.9789L59.5051 18.4951Z" fill="#585757" mask="url(#path-4-inside-1_21_35)"/>
</svg>
