<svg width="150" height="32" viewBox="0 0 150 32" fill="none" xmlns="http://www.w3.org/2000/svg">
    <path d="M0.56 24V0.959999H4.416V20.384H14.592V24H0.56ZM24.9345 24.48C23.2065 24.48 21.6972 24.0907 20.4065 23.312C19.1158 22.5333 18.1132 21.4613 17.3985 20.096C16.6945 18.72 16.3425 17.1413 16.3425 15.36C16.3425 13.5467 16.7052 11.9573 17.4305 10.592C18.1558 9.22667 19.1638 8.16 20.4545 7.392C21.7452 6.624 23.2385 6.24 24.9345 6.24C26.6732 6.24 28.1878 6.62933 29.4785 7.408C30.7692 8.18667 31.7718 9.264 32.4865 10.64C33.2012 12.0053 33.5585 13.5787 33.5585 15.36C33.5585 17.152 33.1958 18.736 32.4705 20.112C31.7558 21.4773 30.7532 22.5493 29.4625 23.328C28.1718 24.096 26.6625 24.48 24.9345 24.48ZM24.9345 20.864C26.4705 20.864 27.6118 20.352 28.3585 19.328C29.1052 18.304 29.4785 16.9813 29.4785 15.36C29.4785 13.6853 29.0998 12.352 28.3425 11.36C27.5852 10.3573 26.4492 9.856 24.9345 9.856C23.8998 9.856 23.0465 10.0907 22.3745 10.56C21.7132 11.0187 21.2225 11.664 20.9025 12.496C20.5825 13.3173 20.4225 14.272 20.4225 15.36C20.4225 17.0347 20.8012 18.3733 21.5585 19.376C22.3265 20.368 23.4518 20.864 24.9345 20.864ZM38.7308 31.68L42.0588 22.544L42.1228 25.232L34.5868 6.72H38.6028L43.9468 20.416H42.9228L48.1228 6.72H51.9788L42.3468 31.68H38.7308ZM58.572 24.48C57.324 24.48 56.268 24.2453 55.404 23.776C54.54 23.296 53.884 22.6613 53.436 21.872C52.9987 21.0827 52.78 20.2133 52.78 19.264C52.78 18.432 52.9187 17.6853 53.196 17.024C53.4733 16.352 53.9 15.776 54.476 15.296C55.052 14.8053 55.7987 14.4053 56.716 14.096C57.4093 13.872 58.22 13.6693 59.148 13.488C60.0867 13.3067 61.1 13.1413 62.188 12.992C63.2867 12.832 64.4333 12.6613 65.628 12.48L64.252 13.264C64.2627 12.0693 63.996 11.1893 63.452 10.624C62.908 10.0587 61.9907 9.776 60.7 9.776C59.9213 9.776 59.1693 9.95733 58.444 10.32C57.7187 10.6827 57.212 11.3067 56.924 12.192L53.404 11.088C53.8307 9.62667 54.6413 8.45333 55.836 7.568C57.0413 6.68267 58.6627 6.24 60.7 6.24C62.236 6.24 63.5853 6.49067 64.748 6.992C65.9213 7.49333 66.7907 8.31467 67.356 9.456C67.6653 10.064 67.852 10.688 67.916 11.328C67.98 11.9573 68.012 12.6453 68.012 13.392V24H64.636V20.256L65.196 20.864C64.4173 22.112 63.5053 23.0293 62.46 23.616C61.4253 24.192 60.1293 24.48 58.572 24.48ZM59.34 21.408C60.2147 21.408 60.9613 21.2533 61.58 20.944C62.1987 20.6347 62.6893 20.256 63.052 19.808C63.4253 19.36 63.676 18.9387 63.804 18.544C64.0067 18.0533 64.1187 17.4933 64.14 16.864C64.172 16.224 64.188 15.7067 64.188 15.312L65.372 15.664C64.2093 15.8453 63.212 16.0053 62.38 16.144C61.548 16.2827 60.8333 16.416 60.236 16.544C59.6387 16.6613 59.1107 16.7947 58.652 16.944C58.204 17.104 57.8253 17.2907 57.516 17.504C57.2067 17.7173 56.9667 17.9627 56.796 18.24C56.636 18.5173 56.556 18.8427 56.556 19.216C56.556 19.6427 56.6627 20.0213 56.876 20.352C57.0893 20.672 57.3987 20.928 57.804 21.12C58.22 21.312 58.732 21.408 59.34 21.408ZM78.5838 24V0.959999H87.7198C89.2771 0.959999 90.5518 1.27467 91.5438 1.904C92.5464 2.52267 93.2878 3.31733 93.7678 4.288C94.2584 5.25867 94.5038 6.26133 94.5038 7.296C94.5038 8.56533 94.1998 9.64267 93.5918 10.528C92.9944 11.4133 92.1784 12.0107 91.1438 12.32V11.52C92.5944 11.8507 93.6931 12.5387 94.4398 13.584C95.1971 14.6293 95.5758 15.8187 95.5758 17.152C95.5758 18.5173 95.3144 19.712 94.7917 20.736C94.2691 21.76 93.4904 22.56 92.4558 23.136C91.4318 23.712 90.1624 24 88.6478 24H78.5838ZM82.4878 20.368H88.1678C88.8398 20.368 89.4424 20.2347 89.9758 19.968C90.5091 19.6907 90.9251 19.3067 91.2238 18.816C91.5331 18.3147 91.6878 17.7227 91.6878 17.04C91.6878 16.4213 91.5544 15.8667 91.2878 15.376C91.0211 14.8853 90.6318 14.496 90.1198 14.208C89.6078 13.9093 88.9944 13.76 88.2798 13.76H82.4878V20.368ZM82.4878 10.16H87.6718C88.2264 10.16 88.7224 10.0533 89.1598 9.84C89.5971 9.62667 89.9438 9.312 90.1998 8.896C90.4558 8.48 90.5838 7.968 90.5838 7.36C90.5838 6.56 90.3278 5.89333 89.8158 5.36C89.3038 4.82667 88.5891 4.56 87.6718 4.56H82.4878V10.16ZM106.403 24.48C104.675 24.48 103.166 24.0907 101.875 23.312C100.585 22.5333 99.5819 21.4613 98.8673 20.096C98.1633 18.72 97.8113 17.1413 97.8113 15.36C97.8113 13.5467 98.1739 11.9573 98.8993 10.592C99.6246 9.22667 100.633 8.16 101.923 7.392C103.214 6.624 104.707 6.24 106.403 6.24C108.142 6.24 109.657 6.62933 110.947 7.408C112.238 8.18667 113.241 9.264 113.955 10.64C114.67 12.0053 115.027 13.5787 115.027 15.36C115.027 17.152 114.665 18.736 113.939 20.112C113.225 21.4773 112.222 22.5493 110.931 23.328C109.641 24.096 108.131 24.48 106.403 24.48ZM106.403 20.864C107.939 20.864 109.081 20.352 109.827 19.328C110.574 18.304 110.947 16.9813 110.947 15.36C110.947 13.6853 110.569 12.352 109.811 11.36C109.054 10.3573 107.918 9.856 106.403 9.856C105.369 9.856 104.515 10.0907 103.843 10.56C103.182 11.0187 102.691 11.664 102.371 12.496C102.051 13.3173 101.891 14.272 101.891 15.36C101.891 17.0347 102.27 18.3733 103.027 19.376C103.795 20.368 104.921 20.864 106.403 20.864ZM124.818 24.48C122.685 24.48 120.952 24 119.618 23.04C118.285 22.08 117.474 20.7307 117.186 18.992L121.122 18.384C121.325 19.2373 121.773 19.9093 122.466 20.4C123.16 20.8907 124.034 21.136 125.09 21.136C126.018 21.136 126.733 20.9547 127.234 20.592C127.746 20.2187 128.002 19.712 128.002 19.072C128.002 18.6773 127.906 18.3627 127.714 18.128C127.533 17.8827 127.128 17.648 126.498 17.424C125.869 17.2 124.904 16.9173 123.602 16.576C122.152 16.192 121 15.7813 120.146 15.344C119.293 14.896 118.68 14.368 118.306 13.76C117.933 13.152 117.746 12.416 117.746 11.552C117.746 10.4747 118.029 9.536 118.594 8.736C119.16 7.936 119.949 7.32267 120.962 6.896C121.976 6.45867 123.17 6.24 124.546 6.24C125.89 6.24 127.08 6.448 128.114 6.864C129.16 7.28 130.002 7.872 130.642 8.64C131.282 9.408 131.677 10.3093 131.826 11.344L127.89 12.048C127.794 11.312 127.458 10.7307 126.882 10.304C126.317 9.87733 125.56 9.63733 124.61 9.584C123.704 9.53067 122.973 9.66933 122.418 10C121.864 10.32 121.586 10.7733 121.586 11.36C121.586 11.6907 121.698 11.9733 121.922 12.208C122.146 12.4427 122.594 12.6773 123.266 12.912C123.949 13.1467 124.962 13.4347 126.306 13.776C127.682 14.128 128.781 14.5333 129.602 14.992C130.434 15.44 131.032 15.9787 131.394 16.608C131.768 17.2373 131.954 18 131.954 18.896C131.954 20.6347 131.32 22 130.05 22.992C128.792 23.984 127.048 24.48 124.818 24.48ZM142.131 24.48C139.997 24.48 138.264 24 136.931 23.04C135.597 22.08 134.787 20.7307 134.499 18.992L138.435 18.384C138.637 19.2373 139.085 19.9093 139.779 20.4C140.472 20.8907 141.347 21.136 142.403 21.136C143.331 21.136 144.045 20.9547 144.547 20.592C145.059 20.2187 145.315 19.712 145.315 19.072C145.315 18.6773 145.219 18.3627 145.027 18.128C144.845 17.8827 144.44 17.648 143.811 17.424C143.181 17.2 142.216 16.9173 140.915 16.576C139.464 16.192 138.312 15.7813 137.459 15.344C136.605 14.896 135.992 14.368 135.619 13.76C135.245 13.152 135.059 12.416 135.059 11.552C135.059 10.4747 135.341 9.536 135.907 8.736C136.472 7.936 137.261 7.32267 138.275 6.896C139.288 6.45867 140.483 6.24 141.859 6.24C143.203 6.24 144.392 6.448 145.427 6.864C146.472 7.28 147.315 7.872 147.955 8.64C148.595 9.408 148.989 10.3093 149.139 11.344L145.203 12.048C145.107 11.312 144.771 10.7307 144.195 10.304C143.629 9.87733 142.872 9.63733 141.923 9.584C141.016 9.53067 140.285 9.66933 139.731 10C139.176 10.32 138.899 10.7733 138.899 11.36C138.899 11.6907 139.011 11.9733 139.235 12.208C139.459 12.4427 139.907 12.6773 140.579 12.912C141.261 13.1467 142.275 13.4347 143.619 13.776C144.995 14.128 146.093 14.5333 146.915 14.992C147.747 15.44 148.344 15.9787 148.707 16.608C149.08 17.2373 149.267 18 149.267 18.896C149.267 20.6347 148.632 22 147.363 22.992C146.104 23.984 144.36 24.48 142.131 24.48Z" fill="#E2087D"/>
</svg>
