<svg width="24" height="24" viewBox="0 0 24 24" fill="none" xmlns="http://www.w3.org/2000/svg">
    <rect width="24" height="24" rx="2" fill="#FCFCFC"/>
    <path d="M16.2127 9.38442C16.2127 9.66928 15.9842 9.90045 15.7022 9.90045H8.29802C8.01589 9.90045 7.78763 9.66924 7.78763 9.38442C7.78763 9.09949 8.01589 8.86828 8.29802 8.86828H15.7022C15.9842 8.86828 16.2127 9.09953 16.2127 9.38442ZM15.7022 11.9472H8.29802C8.01589 11.9472 7.78763 12.1783 7.78763 12.4632C7.78763 12.7482 8.01589 12.9793 8.29802 12.9793H15.7022C15.9842 12.9793 16.2127 12.7482 16.2127 12.4632C16.2127 12.1783 15.9842 11.9472 15.7022 11.9472ZM20 10.7083C20 13.0192 18.5593 15.1874 16.2275 16.4056C14.5053 19.8974 10.5699 20 10.1198 20H10.1195L10.0569 19.999C9.83386 19.9923 9.641 19.8395 9.58071 19.6227C9.52065 19.4061 9.60553 19.1749 9.79197 19.0515C10.525 18.5672 11.1107 18.0158 11.5419 17.4061C7.34311 17.2063 4 14.2785 4 10.7084C4 7.00922 7.58863 4 12 4C16.4113 4.00023 20 7.00922 20 10.7083ZM18.9787 10.7083C18.9787 7.57878 15.8478 5.03187 12.0002 5.03187C8.15198 5.03187 5.02146 7.57874 5.02146 10.7083C5.02146 13.8383 8.15217 16.3851 12.0002 16.3851C12.1381 16.3851 12.2753 16.3809 12.4118 16.3742C12.4197 16.3738 12.428 16.3738 12.4363 16.3738C12.6065 16.3738 12.7668 16.4598 12.8613 16.6042C12.9611 16.7552 12.9742 16.9483 12.8968 17.1123C12.6227 17.6918 12.2496 18.2315 11.7814 18.7271C12.9906 18.3993 14.5442 17.6259 15.3799 15.8064C15.4291 15.6994 15.5136 15.6125 15.6183 15.5603C17.7223 14.5184 18.9787 12.7041 18.9787 10.7083Z" fill="#585757"/>
</svg>
