<svg width="24" height="24" viewBox="0 0 24 24" fill="none" xmlns="http://www.w3.org/2000/svg">
    <rect width="24" height="24" rx="2" fill="#FCFCFC"/>
    <mask id="path-2-inside-1_33_53" fill="white">
        <path d="M12 16.6094C12.4315 16.6094 12.7812 16.2596 12.7812 15.8281C12.7812 15.3967 12.4315 15.0469 12 15.0469C11.5685 15.0469 11.2188 15.3967 11.2188 15.8281C11.2188 16.2596 11.5685 16.6094 12 16.6094Z"/>
        <path d="M12 4C7.57863 4 4 7.57803 4 12C4 16.4214 7.57803 20 12 20C16.4214 20 20 16.422 20 12C20 7.57863 16.422 4 12 4ZM12 18.75C8.26947 18.75 5.25 15.731 5.25 12C5.25 8.26947 8.26897 5.25 12 5.25C15.7305 5.25 18.75 8.26897 18.75 12C18.75 15.7305 15.731 18.75 12 18.75Z"/>
        <path d="M12 8.01562C10.6215 8.01562 9.5 9.13713 9.5 10.5156C9.5 10.8608 9.77981 11.1406 10.125 11.1406C10.4702 11.1406 10.75 10.8608 10.75 10.5156C10.75 9.82638 11.3108 9.26562 12 9.26562C12.6892 9.26562 13.25 9.82638 13.25 10.5156C13.25 11.2049 12.6892 11.7656 12 11.7656C11.6548 11.7656 11.375 12.0454 11.375 12.3906V13.9531C11.375 14.2983 11.6548 14.5781 12 14.5781C12.3452 14.5781 12.625 14.2983 12.625 13.9531V12.9365C13.7021 12.6583 14.5 11.6784 14.5 10.5156C14.5 9.13713 13.3785 8.01562 12 8.01562Z"/>
    </mask>
    <path d="M12 16.6094C12.4315 16.6094 12.7812 16.2596 12.7812 15.8281C12.7812 15.3967 12.4315 15.0469 12 15.0469C11.5685 15.0469 11.2188 15.3967 11.2188 15.8281C11.2188 16.2596 11.5685 16.6094 12 16.6094Z" fill="#585757"/>
    <path d="M12 4C7.57863 4 4 7.57803 4 12C4 16.4214 7.57803 20 12 20C16.4214 20 20 16.422 20 12C20 7.57863 16.422 4 12 4ZM12 18.75C8.26947 18.75 5.25 15.731 5.25 12C5.25 8.26947 8.26897 5.25 12 5.25C15.7305 5.25 18.75 8.26897 18.75 12C18.75 15.7305 15.731 18.75 12 18.75Z" fill="#585757"/>
    <path d="M12 8.01562C10.6215 8.01562 9.5 9.13713 9.5 10.5156C9.5 10.8608 9.77981 11.1406 10.125 11.1406C10.4702 11.1406 10.75 10.8608 10.75 10.5156C10.75 9.82638 11.3108 9.26562 12 9.26562C12.6892 9.26562 13.25 9.82638 13.25 10.5156C13.25 11.2049 12.6892 11.7656 12 11.7656C11.6548 11.7656 11.375 12.0454 11.375 12.3906V13.9531C11.375 14.2983 11.6548 14.5781 12 14.5781C12.3452 14.5781 12.625 14.2983 12.625 13.9531V12.9365C13.7021 12.6583 14.5 11.6784 14.5 10.5156C14.5 9.13713 13.3785 8.01562 12 8.01562Z" fill="#585757"/>
    <path d="M12.625 12.9365L12.3749 11.9683L11.625 12.162V12.9365H12.625ZM12 17.6094C12.9838 17.6094 13.7812 16.8119 13.7812 15.8281H11.7812C11.7812 15.7073 11.8792 15.6094 12 15.6094V17.6094ZM13.7812 15.8281C13.7812 14.8444 12.9838 14.0469 12 14.0469V16.0469C11.8792 16.0469 11.7812 15.9489 11.7812 15.8281H13.7812ZM12 14.0469C11.0162 14.0469 10.2188 14.8444 10.2188 15.8281H12.2188C12.2188 15.9489 12.1208 16.0469 12 16.0469V14.0469ZM10.2188 15.8281C10.2188 16.8119 11.0162 17.6094 12 17.6094V15.6094C12.1208 15.6094 12.2188 15.7073 12.2188 15.8281H10.2188ZM12 3C7.02639 3 3 7.0257 3 12H5C5 8.13036 8.13086 5 12 5V3ZM3 12C3 16.9736 7.0257 21 12 21V19C8.13036 19 5 15.8691 5 12H3ZM12 21C16.9736 21 21 16.9743 21 12H19C19 15.8696 15.8691 19 12 19V21ZM21 12C21 7.02639 16.9743 3 12 3V5C15.8696 5 19 8.13086 19 12H21ZM12 17.75C8.82171 17.75 6.25 15.1787 6.25 12H4.25C4.25 16.2834 7.71723 19.75 12 19.75V17.75ZM6.25 12C6.25 8.82171 8.8213 6.25 12 6.25V4.25C7.71664 4.25 4.25 7.71723 4.25 12H6.25ZM12 6.25C15.1783 6.25 17.75 8.8213 17.75 12H19.75C19.75 7.71664 16.2828 4.25 12 4.25V6.25ZM17.75 12C17.75 15.1783 15.1787 17.75 12 17.75V19.75C16.2834 19.75 19.75 16.2828 19.75 12H17.75ZM12 7.01562C10.0692 7.01562 8.5 8.58484 8.5 10.5156H10.5C10.5 9.68941 11.1738 9.01562 12 9.01562V7.01562ZM8.5 10.5156C8.5 11.4131 9.22753 12.1406 10.125 12.1406V10.1406C10.3321 10.1406 10.5 10.3085 10.5 10.5156H8.5ZM10.125 12.1406C11.0225 12.1406 11.75 11.4131 11.75 10.5156H9.75C9.75 10.3085 9.9179 10.1406 10.125 10.1406V12.1406ZM11.75 10.5156C11.75 10.3787 11.863 10.2656 12 10.2656V8.26562C10.7585 8.26562 9.75 9.27409 9.75 10.5156H11.75ZM12 10.2656C12.137 10.2656 12.25 10.3787 12.25 10.5156H14.25C14.25 9.27409 13.2415 8.26562 12 8.26562V10.2656ZM12.25 10.5156C12.25 10.6526 12.137 10.7656 12 10.7656V12.7656C13.2415 12.7656 14.25 11.7572 14.25 10.5156H12.25ZM12 10.7656C11.1025 10.7656 10.375 11.4932 10.375 12.3906H12.375C12.375 12.5977 12.2071 12.7656 12 12.7656V10.7656ZM10.375 12.3906V13.9531H12.375V12.3906H10.375ZM10.375 13.9531C10.375 14.8506 11.1025 15.5781 12 15.5781V13.5781C12.2071 13.5781 12.375 13.746 12.375 13.9531H10.375ZM12 15.5781C12.8975 15.5781 13.625 14.8506 13.625 13.9531H11.625C11.625 13.746 11.7929 13.5781 12 13.5781V15.5781ZM13.625 13.9531V12.9365H11.625V13.9531H13.625ZM12.8751 13.9047C14.3819 13.5155 15.5 12.1463 15.5 10.5156H13.5C13.5 11.2105 13.0222 11.8011 12.3749 11.9683L12.8751 13.9047ZM15.5 10.5156C15.5 8.58484 13.9308 7.01562 12 7.01562V9.01562C12.8262 9.01562 13.5 9.68941 13.5 10.5156H15.5Z" fill="#585757" mask="url(#path-2-inside-1_33_53)"/>
</svg>
