<svg width="104" height="24" viewBox="0 0 104 24" fill="none" xmlns="http://www.w3.org/2000/svg">
    <rect width="24" height="24" rx="2" fill="#FCFCFC"/>
    <mask id="path-2-inside-1_21_52" fill="white">
        <path d="M12 16.6094C12.4315 16.6094 12.7812 16.2596 12.7812 15.8281C12.7812 15.3967 12.4315 15.0469 12 15.0469C11.5685 15.0469 11.2188 15.3967 11.2188 15.8281C11.2188 16.2596 11.5685 16.6094 12 16.6094Z"/>
        <path d="M12 4C7.57863 4 4 7.57803 4 12C4 16.4214 7.57803 20 12 20C16.4214 20 20 16.422 20 12C20 7.57863 16.422 4 12 4ZM12 18.75C8.26947 18.75 5.25 15.731 5.25 12C5.25 8.26947 8.26897 5.25 12 5.25C15.7305 5.25 18.75 8.26897 18.75 12C18.75 15.7305 15.731 18.75 12 18.75Z"/>
        <path d="M12 8.01562C10.6215 8.01562 9.5 9.13713 9.5 10.5156C9.5 10.8608 9.77981 11.1406 10.125 11.1406C10.4702 11.1406 10.75 10.8608 10.75 10.5156C10.75 9.82638 11.3108 9.26562 12 9.26562C12.6892 9.26562 13.25 9.82638 13.25 10.5156C13.25 11.2049 12.6892 11.7656 12 11.7656C11.6548 11.7656 11.375 12.0454 11.375 12.3906V13.9531C11.375 14.2983 11.6548 14.5781 12 14.5781C12.3452 14.5781 12.625 14.2983 12.625 13.9531V12.9365C13.7021 12.6583 14.5 11.6784 14.5 10.5156C14.5 9.13713 13.3785 8.01562 12 8.01562Z"/>
    </mask>
    <path d="M12 16.6094C12.4315 16.6094 12.7812 16.2596 12.7812 15.8281C12.7812 15.3967 12.4315 15.0469 12 15.0469C11.5685 15.0469 11.2188 15.3967 11.2188 15.8281C11.2188 16.2596 11.5685 16.6094 12 16.6094Z" fill="#585757"/>
    <path d="M12 4C7.57863 4 4 7.57803 4 12C4 16.4214 7.57803 20 12 20C16.4214 20 20 16.422 20 12C20 7.57863 16.422 4 12 4ZM12 18.75C8.26947 18.75 5.25 15.731 5.25 12C5.25 8.26947 8.26897 5.25 12 5.25C15.7305 5.25 18.75 8.26897 18.75 12C18.75 15.7305 15.731 18.75 12 18.75Z" fill="#585757"/>
    <path d="M12 8.01562C10.6215 8.01562 9.5 9.13713 9.5 10.5156C9.5 10.8608 9.77981 11.1406 10.125 11.1406C10.4702 11.1406 10.75 10.8608 10.75 10.5156C10.75 9.82638 11.3108 9.26562 12 9.26562C12.6892 9.26562 13.25 9.82638 13.25 10.5156C13.25 11.2049 12.6892 11.7656 12 11.7656C11.6548 11.7656 11.375 12.0454 11.375 12.3906V13.9531C11.375 14.2983 11.6548 14.5781 12 14.5781C12.3452 14.5781 12.625 14.2983 12.625 13.9531V12.9365C13.7021 12.6583 14.5 11.6784 14.5 10.5156C14.5 9.13713 13.3785 8.01562 12 8.01562Z" fill="#585757"/>
    <path d="M12.625 12.9365L12.3749 11.9683L11.625 12.162V12.9365H12.625ZM12 17.6094C12.9838 17.6094 13.7812 16.8119 13.7812 15.8281H11.7812C11.7812 15.7073 11.8792 15.6094 12 15.6094V17.6094ZM13.7812 15.8281C13.7812 14.8444 12.9838 14.0469 12 14.0469V16.0469C11.8792 16.0469 11.7812 15.9489 11.7812 15.8281H13.7812ZM12 14.0469C11.0162 14.0469 10.2188 14.8444 10.2188 15.8281H12.2188C12.2188 15.9489 12.1208 16.0469 12 16.0469V14.0469ZM10.2188 15.8281C10.2188 16.8119 11.0162 17.6094 12 17.6094V15.6094C12.1208 15.6094 12.2188 15.7073 12.2188 15.8281H10.2188ZM12 3C7.02639 3 3 7.0257 3 12H5C5 8.13036 8.13086 5 12 5V3ZM3 12C3 16.9736 7.0257 21 12 21V19C8.13036 19 5 15.8691 5 12H3ZM12 21C16.9736 21 21 16.9743 21 12H19C19 15.8696 15.8691 19 12 19V21ZM21 12C21 7.02639 16.9743 3 12 3V5C15.8696 5 19 8.13086 19 12H21ZM12 17.75C8.82171 17.75 6.25 15.1787 6.25 12H4.25C4.25 16.2834 7.71723 19.75 12 19.75V17.75ZM6.25 12C6.25 8.82171 8.8213 6.25 12 6.25V4.25C7.71664 4.25 4.25 7.71723 4.25 12H6.25ZM12 6.25C15.1783 6.25 17.75 8.8213 17.75 12H19.75C19.75 7.71664 16.2828 4.25 12 4.25V6.25ZM17.75 12C17.75 15.1783 15.1787 17.75 12 17.75V19.75C16.2834 19.75 19.75 16.2828 19.75 12H17.75ZM12 7.01562C10.0692 7.01562 8.5 8.58484 8.5 10.5156H10.5C10.5 9.68941 11.1738 9.01562 12 9.01562V7.01562ZM8.5 10.5156C8.5 11.4131 9.22753 12.1406 10.125 12.1406V10.1406C10.3321 10.1406 10.5 10.3085 10.5 10.5156H8.5ZM10.125 12.1406C11.0225 12.1406 11.75 11.4131 11.75 10.5156H9.75C9.75 10.3085 9.9179 10.1406 10.125 10.1406V12.1406ZM11.75 10.5156C11.75 10.3787 11.863 10.2656 12 10.2656V8.26562C10.7585 8.26562 9.75 9.27409 9.75 10.5156H11.75ZM12 10.2656C12.137 10.2656 12.25 10.3787 12.25 10.5156H14.25C14.25 9.27409 13.2415 8.26562 12 8.26562V10.2656ZM12.25 10.5156C12.25 10.6526 12.137 10.7656 12 10.7656V12.7656C13.2415 12.7656 14.25 11.7572 14.25 10.5156H12.25ZM12 10.7656C11.1025 10.7656 10.375 11.4932 10.375 12.3906H12.375C12.375 12.5977 12.2071 12.7656 12 12.7656V10.7656ZM10.375 12.3906V13.9531H12.375V12.3906H10.375ZM10.375 13.9531C10.375 14.8506 11.1025 15.5781 12 15.5781V13.5781C12.2071 13.5781 12.375 13.746 12.375 13.9531H10.375ZM12 15.5781C12.8975 15.5781 13.625 14.8506 13.625 13.9531H11.625C11.625 13.746 11.7929 13.5781 12 13.5781V15.5781ZM13.625 13.9531V12.9365H11.625V13.9531H13.625ZM12.8751 13.9047C14.3819 13.5155 15.5 12.1463 15.5 10.5156H13.5C13.5 11.2105 13.0222 11.8011 12.3749 11.9683L12.8751 13.9047ZM15.5 10.5156C15.5 8.58484 13.9308 7.01562 12 7.01562V9.01562C12.8262 9.01562 13.5 9.68941 13.5 10.5156H15.5Z" fill="#585757" mask="url(#path-2-inside-1_21_52)"/>
    <rect x="40" width="24" height="24" rx="2" fill="#FCFCFC"/>
    <path d="M56.2127 9.38442C56.2127 9.66928 55.9842 9.90045 55.7022 9.90045H48.298C48.0159 9.90045 47.7876 9.66924 47.7876 9.38442C47.7876 9.09949 48.0159 8.86828 48.298 8.86828H55.7022C55.9842 8.86828 56.2127 9.09953 56.2127 9.38442ZM55.7022 11.9472H48.298C48.0159 11.9472 47.7876 12.1783 47.7876 12.4632C47.7876 12.7482 48.0159 12.9793 48.298 12.9793H55.7022C55.9842 12.9793 56.2127 12.7482 56.2127 12.4632C56.2127 12.1783 55.9842 11.9472 55.7022 11.9472ZM60 10.7083C60 13.0192 58.5593 15.1874 56.2275 16.4056C54.5053 19.8974 50.5699 20 50.1198 20H50.1195L50.0569 19.999C49.8339 19.9923 49.641 19.8395 49.5807 19.6227C49.5207 19.4061 49.6055 19.1749 49.792 19.0515C50.525 18.5672 51.1107 18.0158 51.5419 17.4061C47.3431 17.2063 44 14.2785 44 10.7084C44 7.00922 47.5886 4 52 4C56.4113 4.00023 60 7.00922 60 10.7083ZM58.9787 10.7083C58.9787 7.57878 55.8478 5.03187 52.0002 5.03187C48.152 5.03187 45.0215 7.57874 45.0215 10.7083C45.0215 13.8383 48.1522 16.3851 52.0002 16.3851C52.1381 16.3851 52.2753 16.3809 52.4118 16.3742C52.4197 16.3738 52.428 16.3738 52.4363 16.3738C52.6065 16.3738 52.7668 16.4598 52.8613 16.6042C52.9611 16.7552 52.9742 16.9483 52.8968 17.1123C52.6227 17.6918 52.2496 18.2315 51.7814 18.7271C52.9906 18.3993 54.5442 17.6259 55.3799 15.8064C55.4291 15.6994 55.5136 15.6125 55.6183 15.5603C57.7223 14.5184 58.9787 12.7041 58.9787 10.7083Z" fill="#585757"/>
    <rect x="80" width="24" height="24" rx="2" fill="#FCFCFC"/>
    <path d="M89.5719 9.82802C89.5703 9.82368 89.5686 9.81933 89.5668 9.81502C89.48 9.60068 89.2765 9.46228 89.0482 9.46228C89.048 9.46228 89.0478 9.46228 89.0476 9.46228C88.8191 9.46253 88.6156 9.60141 88.5291 9.8161C88.5277 9.81965 88.5263 9.82323 88.5249 9.82682L86.9995 13.8925C86.9073 14.1381 87.0288 14.413 87.2707 14.5065C87.5127 14.6001 87.7835 14.4768 87.8756 14.2312L88.1405 13.5251H89.9444L90.2064 14.2298C90.2773 14.4204 90.4556 14.5378 90.6451 14.5378C90.7001 14.5378 90.756 14.5279 90.8105 14.507C91.0527 14.4142 91.175 14.1397 91.0835 13.8938L89.5719 9.82802ZM88.4976 12.5735L89.0466 11.1103L89.5906 12.5735H88.4976Z" fill="#585757"/>
    <path d="M96 9.46231C95.7411 9.46231 95.5313 9.67535 95.5313 9.93813V14.0619C95.5313 14.3246 95.7411 14.5377 96 14.5377C96.2589 14.5377 96.4688 14.3246 96.4688 14.0619V9.93813C96.4688 9.67535 96.2589 9.46231 96 9.46231Z" fill="#585757"/>
    <path d="M93.2937 9.46231H92.1625C92.0379 9.46231 91.9185 9.51265 91.8305 9.6022C91.7429 9.6914 91.6937 9.81223 91.6937 9.93813V14.0619C91.6937 14.3246 91.9036 14.5377 92.1625 14.5377C92.4214 14.5377 92.6312 14.3246 92.6312 14.0619V12.7439C92.8692 12.7426 93.1414 12.7414 93.2937 12.7414C94.1967 12.7414 94.9313 12.0059 94.9313 11.1019C94.9313 10.1978 94.1967 9.46231 93.2937 9.46231ZM93.2937 11.7898C93.142 11.7898 92.8734 11.791 92.6365 11.7922C92.6353 11.5437 92.6333 10.6733 92.6326 10.4139H93.2937C93.6732 10.4139 93.9938 10.729 93.9938 11.1018C93.9938 11.4747 93.6732 11.7898 93.2937 11.7898Z" fill="#585757"/>
    <path d="M99.7656 13.3952L98.7199 12.7823C98.7531 12.5074 98.7693 12.2492 98.7693 12C98.7693 11.7509 98.7531 11.4927 98.7199 11.2177L99.7656 10.6049C99.8733 10.5418 99.9518 10.4379 99.984 10.316C100.016 10.1941 99.9994 10.0642 99.9372 9.95491L97.7135 6.04516C97.584 5.81759 97.2974 5.73965 97.0731 5.87097L96.0317 6.48129C95.6209 6.1728 95.1724 5.91164 94.6925 5.70136V4.47582C94.6925 4.21304 94.4826 4 94.2237 4H89.7763C89.5174 4 89.3075 4.21304 89.3075 4.47582V5.70136C88.8277 5.91161 88.3792 6.17283 87.9683 6.48129L86.9269 5.87101C86.8193 5.80791 86.6914 5.79082 86.5713 5.82346C86.4512 5.85613 86.3488 5.93584 86.2866 6.04516L84.0629 9.95484C83.9334 10.1824 84.0103 10.4734 84.2344 10.6048L85.2801 11.2177C85.2469 11.4926 85.2307 11.7508 85.2307 12C85.2307 12.2492 85.2469 12.5074 85.2801 12.7823L84.2344 13.3952C84.0103 13.5266 83.9334 13.8176 84.0629 14.0452L86.2866 17.9548C86.3488 18.0641 86.4511 18.1439 86.5712 18.1765C86.6913 18.2092 86.8192 18.1921 86.9269 18.129L87.9683 17.5187C88.3792 17.8272 88.8277 18.0884 89.3075 18.2986V19.5242C89.3075 19.787 89.5174 20 89.7763 20H94.2237C94.4826 20 94.6925 19.787 94.6925 19.5242V18.2986C95.1724 18.0884 95.6209 17.8272 96.0317 17.5187L97.0731 18.129C97.2974 18.2604 97.584 18.1824 97.7135 17.9548L99.9372 14.0452C99.9993 13.9359 100.016 13.806 99.984 13.6841C99.9519 13.5622 99.8733 13.4583 99.7656 13.3952ZM97.1359 17.067L96.2272 16.5344C96.0582 16.4354 95.8464 16.453 95.6955 16.5786C95.2137 16.9799 94.6628 17.3009 94.0581 17.5329C93.8757 17.6028 93.755 17.7801 93.755 17.978V19.0484H90.245V17.978C90.245 17.7801 90.1243 17.6028 89.942 17.5329C89.3373 17.3009 88.7864 16.9799 88.3045 16.5786C88.1536 16.453 87.9418 16.4353 87.7728 16.5344L86.8641 17.067L85.1092 13.9814L86.0234 13.4456C86.1921 13.3467 86.283 13.1522 86.2517 12.957C86.1955 12.607 86.1682 12.2939 86.1682 12C86.1682 11.7061 86.1955 11.393 86.2517 11.043C86.283 10.8478 86.1921 10.6533 86.0234 10.5544L85.1092 10.0186L86.8641 6.93303L87.7728 7.46556C87.9418 7.5646 88.1536 7.54702 88.3045 7.42138C88.7864 7.0201 89.3373 6.69905 89.942 6.46711C90.1243 6.39713 90.245 6.21991 90.245 6.022V4.95163H93.755V6.02203C93.755 6.21994 93.8757 6.39716 94.0581 6.46714C94.6628 6.69909 95.2137 7.02017 95.6955 7.42138C95.8464 7.54702 96.0582 7.56463 96.2272 7.46559L97.1359 6.93303L98.8909 10.0186L97.9766 10.5544C97.8079 10.6533 97.717 10.8478 97.7483 11.0429C97.8045 11.393 97.8318 11.7061 97.8318 12C97.8318 12.2939 97.8045 12.6069 97.7483 12.957C97.717 13.1522 97.8079 13.3467 97.9766 13.4455L98.8909 13.9814L97.1359 17.067Z" fill="#585757"/>
</svg>
